{
    "asset" : {
        "generator" : "Khronos glTF Blender I/O v1.4.40",
        "version" : "2.0"
    },
    "scene" : 0,
    "scenes" : [
        {
            "name" : "Scene",
            "nodes" : [
                0
            ]
        }
    ],
    "nodes" : [
        {
            "mesh" : 0,
            "name" : "Earth",
            "rotation" : [
                -0.26063355803489685,
                -0.6573204398155212,
                0.26063352823257446,
                0.6573204398155212
            ]
        }
    ],
    "materials" : [
        {
            "doubleSided" : true,
            "name" : "Road",
            "pbrMetallicRoughness" : {
                "baseColorFactor" : [
                    0.5277186632156372,
                    0.2708425223827362,
                    0.08581530302762985,
                    1
                ],
                "metallicFactor" : 0,
                "roughnessFactor" : 0.5
            }
        },
        {
            "doubleSided" : true,
            "name" : "Snow",
            "pbrMetallicRoughness" : {
                "baseColorFactor" : [
                    0.800000011920929,
                    0.800000011920929,
                    0.800000011920929,
                    1
                ],
                "metallicFactor" : 0,
                "roughnessFactor" : 0.5
            }
        },
        {
            "doubleSided" : true,
            "name" : "GreyRoad",
            "pbrMetallicRoughness" : {
                "baseColorFactor" : [
                    0.3108130097389221,
                    0.29959169030189514,
                    0.2908472418785095,
                    1
                ],
                "metallicFactor" : 0,
                "roughnessFactor" : 0.5
            }
        }
    ],
    "meshes" : [
        {
            "name" : "Icosphere",
            "primitives" : [
                {
                    "attributes" : {
                        "POSITION" : 0,
                        "NORMAL" : 1,
                        "TEXCOORD_0" : 2
                    },
                    "indices" : 3,
                    "material" : 0
                },
                {
                    "attributes" : {
                        "POSITION" : 4,
                        "NORMAL" : 5,
                        "TEXCOORD_0" : 6
                    },
                    "indices" : 7,
                    "material" : 1
                },
                {
                    "attributes" : {
                        "POSITION" : 8,
                        "NORMAL" : 9,
                        "TEXCOORD_0" : 10
                    },
                    "indices" : 11,
                    "material" : 2
                }
            ]
        }
    ],
    "accessors" : [
        {
            "bufferView" : 0,
            "componentType" : 5126,
            "count" : 1202,
            "max" : [
                1.0466562509536743,
                1.0466580390930176,
                0.9999999403953552
            ],
            "min" : [
                -1.0466561317443848,
                -1.0466580390930176,
                -0.9999999403953552
            ],
            "type" : "VEC3"
        },
        {
            "bufferView" : 1,
            "componentType" : 5126,
            "count" : 1202,
            "type" : "VEC3"
        },
        {
            "bufferView" : 2,
            "componentType" : 5126,
            "count" : 1202,
            "type" : "VEC2"
        },
        {
            "bufferView" : 3,
            "componentType" : 5123,
            "count" : 1488,
            "type" : "SCALAR"
        },
        {
            "bufferView" : 4,
            "componentType" : 5126,
            "count" : 62,
            "max" : [
                0.7104296684265137,
                0.924839437007904,
                0.8936088681221008
            ],
            "min" : [
                0.16245555877685547,
                0.25115203857421875,
                0.2628629505634308
            ],
            "type" : "VEC3"
        },
        {
            "bufferView" : 5,
            "componentType" : 5126,
            "count" : 62,
            "type" : "VEC3"
        },
        {
            "bufferView" : 6,
            "componentType" : 5126,
            "count" : 62,
            "type" : "VEC2"
        },
        {
            "bufferView" : 7,
            "componentType" : 5123,
            "count" : 78,
            "type" : "SCALAR"
        },
        {
            "bufferView" : 8,
            "componentType" : 5126,
            "count" : 64,
            "max" : [
                -0.05278957262635231,
                1.0112091302871704,
                -0.14761784672737122
            ],
            "min" : [
                -0.8465914726257324,
                0.2763972580432892,
                -0.8882691264152527
            ],
            "type" : "VEC3"
        },
        {
            "bufferView" : 9,
            "componentType" : 5126,
            "count" : 64,
            "type" : "VEC3"
        },
        {
            "bufferView" : 10,
            "componentType" : 5126,
            "count" : 64,
            "type" : "VEC2"
        },
        {
            "bufferView" : 11,
            "componentType" : 5123,
            "count" : 78,
            "type" : "SCALAR"
        }
    ],
    "bufferViews" : [
        {
            "buffer" : 0,
            "byteLength" : 14424,
            "byteOffset" : 0
        },
        {
            "buffer" : 0,
            "byteLength" : 14424,
            "byteOffset" : 14424
        },
        {
            "buffer" : 0,
            "byteLength" : 9616,
            "byteOffset" : 28848
        },
        {
            "buffer" : 0,
            "byteLength" : 2976,
            "byteOffset" : 38464
        },
        {
            "buffer" : 0,
            "byteLength" : 744,
            "byteOffset" : 41440
        },
        {
            "buffer" : 0,
            "byteLength" : 744,
            "byteOffset" : 42184
        },
        {
            "buffer" : 0,
            "byteLength" : 496,
            "byteOffset" : 42928
        },
        {
            "buffer" : 0,
            "byteLength" : 156,
            "byteOffset" : 43424
        },
        {
            "buffer" : 0,
            "byteLength" : 768,
            "byteOffset" : 43580
        },
        {
            "buffer" : 0,
            "byteLength" : 768,
            "byteOffset" : 44348
        },
        {
            "buffer" : 0,
            "byteLength" : 512,
            "byteOffset" : 45116
        },
        {
            "buffer" : 0,
            "byteLength" : 156,
            "byteOffset" : 45628
        }
    ],
    "buffers" : [
        {
            "byteLength" : 45784,
            "uri" : "data:application/octet-stream;base64,"
        }
    ]
}
