{
    "asset" : {
        "generator" : "Khronos glTF Blender I/O v1.4.40",
        "version" : "2.0"
    },
    "scene" : 0,
    "scenes" : [
        {
            "name" : "Scene",
            "nodes" : [
                0,
                1,
                2,
                3,
                4,
                5,
                6,
                7,
                8,
                9,
                10
            ]
        }
    ],
    "nodes" : [
        {
            "name" : "Light",
            "rotation" : [
                0.16907575726509094,
                0.7558803558349609,
                -0.27217137813568115,
                0.570947527885437
            ],
            "translation" : [
                4.076245307922363,
                5.903861999511719,
                -1.0054539442062378
            ]
        },
        {
            "name" : "Camera",
            "rotation" : [
                0.483536034822464,
                0.33687159419059753,
                -0.20870360732078552,
                0.7804827094078064
            ],
            "translation" : [
                7.358891487121582,
                4.958309173583984,
                6.925790786743164
            ]
        },
        {
            "name" : "Lamp",
            "rotation" : [
                0.16907575726509094,
                0.7558804154396057,
                -0.27217134833335876,
                0.5709474086761475
            ],
            "translation" : [
                0.8466747999191284,
                5.104786396026611,
                1.885284423828125
            ]
        },
        {
            "name" : "Camera.001",
            "rotation" : [
                0.3507174253463745,
                0.6369612216949463,
                -0.4008212387561798,
                0.5573329925537109
            ],
            "translation" : [
                4.620977878570557,
                2.331676959991455,
                -0.7825310826301575
            ]
        },
        {
            "mesh" : 0,
            "name" : "Earth"
        },
        {
            "mesh" : 1,
            "name" : "Icosphere.001_Icosphere.002"
        },
        {
            "mesh" : 2,
            "name" : "Icosphere.002_Icosphere.003"
        },
        {
            "mesh" : 3,
            "name" : "Icosphere.003_Icosphere.004"
        },
        {
            "mesh" : 4,
            "name" : "Icosphere.004_Icosphere.005"
        },
        {
            "mesh" : 5,
            "name" : "Cube.001_Cube.004"
        },
        {
            "mesh" : 6,
            "name" : "Cube_Cube.003"
        }
    ],
    "materials" : [
        {
            "doubleSided" : true,
            "name" : "Blue.001",
            "pbrMetallicRoughness" : {
                "baseColorFactor" : [
                    0.07841099798679352,
                    0.3034209907054901,
                    0.37376001477241516,
                    1
                ],
                "metallicFactor" : 0,
                "roughnessFactor" : 0.6732679605484009
            }
        },
        {
            "doubleSided" : true,
            "name" : "Green.001",
            "pbrMetallicRoughness" : {
                "baseColorFactor" : [
                    0.02335299924015999,
                    0.2248069941997528,
                    0.012757999822497368,
                    1
                ],
                "metallicFactor" : 0,
                "roughnessFactor" : 0.6732679605484009
            }
        },
        {
            "doubleSided" : true,
            "name" : "Snow.001",
            "pbrMetallicRoughness" : {
                "baseColorFactor" : [
                    0.5106160044670105,
                    0.5106160044670105,
                    0.5106160044670105,
                    1
                ],
                "metallicFactor" : 0,
                "roughnessFactor" : 0.6732679605484009
            }
        },
        {
            "doubleSided" : true,
            "name" : "Brown.001",
            "pbrMetallicRoughness" : {
                "baseColorFactor" : [
                    0.0668250024318695,
                    0.027931999415159225,
                    0.01299699954688549,
                    1
                ],
                "metallicFactor" : 0,
                "roughnessFactor" : 0.6732679605484009
            }
        },
        {
            "doubleSided" : true,
            "name" : "DarkGreen.001",
            "pbrMetallicRoughness" : {
                "baseColorFactor" : [
                    0.015506000258028507,
                    0.12962299585342407,
                    0.009828999638557434,
                    1
                ],
                "metallicFactor" : 0,
                "roughnessFactor" : 0.6732679605484009
            }
        },
        {
            "doubleSided" : true,
            "name" : "White.001",
            "pbrMetallicRoughness" : {
                "baseColorFactor" : [
                    0.6399999856948853,
                    0.6399999856948853,
                    0.6399999856948853,
                    1
                ],
                "metallicFactor" : 0,
                "roughnessFactor" : 0.6732679605484009
            }
        },
        {
            "doubleSided" : true,
            "name" : "Red.001",
            "pbrMetallicRoughness" : {
                "baseColorFactor" : [
                    0.6399999856948853,
                    0.007280999794602394,
                    0,
                    1
                ],
                "metallicFactor" : 0,
                "roughnessFactor" : 0.6732679605484009
            }
        },
        {
            "doubleSided" : true,
            "name" : "LightBrown.001",
            "pbrMetallicRoughness" : {
                "baseColorFactor" : [
                    0.19695499539375305,
                    0.08305499702692032,
                    0.04758799821138382,
                    1
                ],
                "metallicFactor" : 0,
                "roughnessFactor" : 0.6732679605484009
            }
        }
    ],
    "meshes" : [
        {
            "name" : "Icosphere.001",
            "primitives" : [
                {
                    "attributes" : {
                        "POSITION" : 0,
                        "NORMAL" : 1
                    },
                    "indices" : 2,
                    "material" : 0
                },
                {
                    "attributes" : {
                        "POSITION" : 3,
                        "NORMAL" : 4
                    },
                    "indices" : 5,
                    "material" : 1
                },
                {
                    "attributes" : {
                        "POSITION" : 6,
                        "NORMAL" : 7
                    },
                    "indices" : 8,
                    "material" : 2
                },
                {
                    "attributes" : {
                        "POSITION" : 9,
                        "NORMAL" : 10
                    },
                    "indices" : 11,
                    "material" : 3
                },
                {
                    "attributes" : {
                        "POSITION" : 12,
                        "NORMAL" : 13
                    },
                    "indices" : 14,
                    "material" : 4
                }
            ]
        },
        {
            "name" : "Icosphere.001_Icosphere.002",
            "primitives" : [
                {
                    "attributes" : {
                        "POSITION" : 15,
                        "NORMAL" : 16
                    },
                    "indices" : 17,
                    "material" : 5
                }
            ]
        },
        {
            "name" : "Icosphere.002_Icosphere.003",
            "primitives" : [
                {
                    "attributes" : {
                        "POSITION" : 18,
                        "NORMAL" : 19
                    },
                    "indices" : 20,
                    "material" : 5
                }
            ]
        },
        {
            "name" : "Icosphere.003_Icosphere.004",
            "primitives" : [
                {
                    "attributes" : {
                        "POSITION" : 21,
                        "NORMAL" : 22
                    },
                    "indices" : 23,
                    "material" : 5
                }
            ]
        },
        {
            "name" : "Icosphere.004_Icosphere.005",
            "primitives" : [
                {
                    "attributes" : {
                        "POSITION" : 24,
                        "NORMAL" : 25
                    },
                    "indices" : 26,
                    "material" : 5
                }
            ]
        },
        {
            "name" : "Cube.001_Cube.004",
            "primitives" : [
                {
                    "attributes" : {
                        "POSITION" : 27,
                        "NORMAL" : 28
                    },
                    "indices" : 29,
                    "material" : 6
                },
                {
                    "attributes" : {
                        "POSITION" : 30,
                        "NORMAL" : 31
                    },
                    "indices" : 32,
                    "material" : 5
                }
            ]
        },
        {
            "name" : "Cube_Cube.003",
            "primitives" : [
                {
                    "attributes" : {
                        "POSITION" : 33,
                        "NORMAL" : 34
                    },
                    "indices" : 35,
                    "material" : 7
                }
            ]
        }
    ],
    "accessors" : [
        {
            "bufferView" : 0,
            "componentType" : 5126,
            "count" : 2768,
            "max" : [
                1.0118989944458008,
                1.0531350374221802,
                1.0023640394210815
            ],
            "min" : [
                -0.9907029867172241,
                -0.9985340237617493,
                -1.0182709693908691
            ],
            "type" : "VEC3"
        },
        {
            "bufferView" : 1,
            "componentType" : 5126,
            "count" : 2768,
            "type" : "VEC3"
        },
        {
            "bufferView" : 2,
            "componentType" : 5123,
            "count" : 3414,
            "type" : "SCALAR"
        },
        {
            "bufferView" : 3,
            "componentType" : 5126,
            "count" : 2031,
            "max" : [
                1.0678809881210327,
                1.0546740293502808,
                1.0526310205459595
            ],
            "min" : [
                -1.0605440139770508,
                -1.0442179441452026,
                -1.0283039808273315
            ],
            "type" : "VEC3"
        },
        {
            "bufferView" : 4,
            "componentType" : 5126,
            "count" : 2031,
            "type" : "VEC3"
        },
        {
            "bufferView" : 5,
            "componentType" : 5123,
            "count" : 2379,
            "type" : "SCALAR"
        },
        {
            "bufferView" : 6,
            "componentType" : 5126,
            "count" : 309,
            "max" : [
                1.3478519916534424,
                1.313330054283142,
                0.15636618435382843
            ],
            "min" : [
                -0.20731599628925323,
                0.3182249963283539,
                -0.3919318616390228
            ],
            "type" : "VEC3"
        },
        {
            "bufferView" : 7,
            "componentType" : 5126,
            "count" : 309,
            "type" : "VEC3"
        },
        {
            "bufferView" : 8,
            "componentType" : 5123,
            "count" : 417,
            "type" : "SCALAR"
        },
        {
            "bufferView" : 9,
            "componentType" : 5126,
            "count" : 48,
            "max" : [
                1.309291958808899,
                0.4562259912490845,
                0.20094804465770721
            ],
            "min" : [
                1.0067460536956787,
                0.1359809786081314,
                -0.14827793836593628
            ],
            "type" : "VEC3"
        },
        {
            "bufferView" : 10,
            "componentType" : 5126,
            "count" : 48,
            "type" : "VEC3"
        },
        {
            "bufferView" : 11,
            "componentType" : 5123,
            "count" : 72,
            "type" : "SCALAR"
        },
        {
            "bufferView" : 12,
            "componentType" : 5126,
            "count" : 24,
            "max" : [
                1.08992600440979,
                0.4683839976787567,
                0.2087310403585434
            ],
            "min" : [
                0.9772019982337952,
                0.12111497670412064,
                -0.16597193479537964
            ],
            "type" : "VEC3"
        },
        {
            "bufferView" : 13,
            "componentType" : 5126,
            "count" : 24,
            "type" : "VEC3"
        },
        {
            "bufferView" : 14,
            "componentType" : 5123,
            "count" : 36,
            "type" : "SCALAR"
        },
        {
            "bufferView" : 15,
            "componentType" : 5126,
            "count" : 122,
            "max" : [
                -0.014784581959247589,
                2.0438313484191895,
                1.1049373149871826
            ],
            "min" : [
                -0.4487015902996063,
                1.7023512125015259,
                0.7689193487167358
            ],
            "type" : "VEC3"
        },
        {
            "bufferView" : 16,
            "componentType" : 5126,
            "count" : 122,
            "type" : "VEC3"
        },
        {
            "bufferView" : 17,
            "componentType" : 5123,
            "count" : 174,
            "type" : "SCALAR"
        },
        {
            "bufferView" : 18,
            "componentType" : 5126,
            "count" : 136,
            "max" : [
                1.3491474390029907,
                1.4633994102478027,
                0.6560562252998352
            ],
            "min" : [
                0.9746514558792114,
                1.1219193935394287,
                0.2464602291584015
            ],
            "type" : "VEC3"
        },
        {
            "bufferView" : 19,
            "componentType" : 5126,
            "count" : 136,
            "type" : "VEC3"
        },
        {
            "bufferView" : 20,
            "componentType" : 5123,
            "count" : 174,
            "type" : "SCALAR"
        },
        {
            "bufferView" : 21,
            "componentType" : 5126,
            "count" : 136,
            "max" : [
                0.7290064096450806,
                0.8205516338348389,
                -1.1304899454116821
            ],
            "min" : [
                0.3711194097995758,
                0.42749959230422974,
                -1.4983129501342773
            ],
            "type" : "VEC3"
        },
        {
            "bufferView" : 22,
            "componentType" : 5126,
            "count" : 136,
            "type" : "VEC3"
        },
        {
            "bufferView" : 23,
            "componentType" : 5123,
            "count" : 174,
            "type" : "SCALAR"
        },
        {
            "bufferView" : 24,
            "componentType" : 5126,
            "count" : 122,
            "max" : [
                -0.5971285700798035,
                1.6777656078338623,
                -0.7526767253875732
            ],
            "min" : [
                -0.9502255916595459,
                1.219476580619812,
                -1.0693758726119995
            ],
            "type" : "VEC3"
        },
        {
            "bufferView" : 25,
            "componentType" : 5126,
            "count" : 122,
            "type" : "VEC3"
        },
        {
            "bufferView" : 26,
            "componentType" : 5123,
            "count" : 174,
            "type" : "SCALAR"
        },
        {
            "bufferView" : 27,
            "componentType" : 5126,
            "count" : 174,
            "max" : [
                0.7321783900260925,
                0.8307775259017944,
                -0.7497178316116333
            ],
            "min" : [
                0.5051333904266357,
                0.7015985250473022,
                -1.026116967201233
            ],
            "type" : "VEC3"
        },
        {
            "bufferView" : 28,
            "componentType" : 5126,
            "count" : 174,
            "type" : "VEC3"
        },
        {
            "bufferView" : 29,
            "componentType" : 5123,
            "count" : 432,
            "type" : "SCALAR"
        },
        {
            "bufferView" : 30,
            "componentType" : 5126,
            "count" : 96,
            "max" : [
                0.7321783900260925,
                0.8307775259017944,
                -0.8244688510894775
            ],
            "min" : [
                0.5538204312324524,
                0.7015985250473022,
                -1.026116967201233
            ],
            "type" : "VEC3"
        },
        {
            "bufferView" : 31,
            "componentType" : 5126,
            "count" : 96,
            "type" : "VEC3"
        },
        {
            "bufferView" : 32,
            "componentType" : 5123,
            "count" : 192,
            "type" : "SCALAR"
        },
        {
            "bufferView" : 33,
            "componentType" : 5126,
            "count" : 184,
            "max" : [
                0.6727849841117859,
                0.3854922652244568,
                -0.45145362615585327
            ],
            "min" : [
                0.3201279938220978,
                0.2361973524093628,
                -0.7892186045646667
            ],
            "type" : "VEC3"
        },
        {
            "bufferView" : 34,
            "componentType" : 5126,
            "count" : 184,
            "type" : "VEC3"
        },
        {
            "bufferView" : 35,
            "componentType" : 5123,
            "count" : 276,
            "type" : "SCALAR"
        }
    ],
    "bufferViews" : [
        {
            "buffer" : 0,
            "byteLength" : 33216,
            "byteOffset" : 0
        },
        {
            "buffer" : 0,
            "byteLength" : 33216,
            "byteOffset" : 33216
        },
        {
            "buffer" : 0,
            "byteLength" : 6828,
            "byteOffset" : 66432
        },
        {
            "buffer" : 0,
            "byteLength" : 24372,
            "byteOffset" : 73260
        },
        {
            "buffer" : 0,
            "byteLength" : 24372,
            "byteOffset" : 97632
        },
        {
            "buffer" : 0,
            "byteLength" : 4758,
            "byteOffset" : 122004
        },
        {
            "buffer" : 0,
            "byteLength" : 3708,
            "byteOffset" : 126764
        },
        {
            "buffer" : 0,
            "byteLength" : 3708,
            "byteOffset" : 130472
        },
        {
            "buffer" : 0,
            "byteLength" : 834,
            "byteOffset" : 134180
        },
        {
            "buffer" : 0,
            "byteLength" : 576,
            "byteOffset" : 135016
        },
        {
            "buffer" : 0,
            "byteLength" : 576,
            "byteOffset" : 135592
        },
        {
            "buffer" : 0,
            "byteLength" : 144,
            "byteOffset" : 136168
        },
        {
            "buffer" : 0,
            "byteLength" : 288,
            "byteOffset" : 136312
        },
        {
            "buffer" : 0,
            "byteLength" : 288,
            "byteOffset" : 136600
        },
        {
            "buffer" : 0,
            "byteLength" : 72,
            "byteOffset" : 136888
        },
        {
            "buffer" : 0,
            "byteLength" : 1464,
            "byteOffset" : 136960
        },
        {
            "buffer" : 0,
            "byteLength" : 1464,
            "byteOffset" : 138424
        },
        {
            "buffer" : 0,
            "byteLength" : 348,
            "byteOffset" : 139888
        },
        {
            "buffer" : 0,
            "byteLength" : 1632,
            "byteOffset" : 140236
        },
        {
            "buffer" : 0,
            "byteLength" : 1632,
            "byteOffset" : 141868
        },
        {
            "buffer" : 0,
            "byteLength" : 348,
            "byteOffset" : 143500
        },
        {
            "buffer" : 0,
            "byteLength" : 1632,
            "byteOffset" : 143848
        },
        {
            "buffer" : 0,
            "byteLength" : 1632,
            "byteOffset" : 145480
        },
        {
            "buffer" : 0,
            "byteLength" : 348,
            "byteOffset" : 147112
        },
        {
            "buffer" : 0,
            "byteLength" : 1464,
            "byteOffset" : 147460
        },
        {
            "buffer" : 0,
            "byteLength" : 1464,
            "byteOffset" : 148924
        },
        {
            "buffer" : 0,
            "byteLength" : 348,
            "byteOffset" : 150388
        },
        {
            "buffer" : 0,
            "byteLength" : 2088,
            "byteOffset" : 150736
        },
        {
            "buffer" : 0,
            "byteLength" : 2088,
            "byteOffset" : 152824
        },
        {
            "buffer" : 0,
            "byteLength" : 864,
            "byteOffset" : 154912
        },
        {
            "buffer" : 0,
            "byteLength" : 1152,
            "byteOffset" : 155776
        },
        {
            "buffer" : 0,
            "byteLength" : 1152,
            "byteOffset" : 156928
        },
        {
            "buffer" : 0,
            "byteLength" : 384,
            "byteOffset" : 158080
        },
        {
            "buffer" : 0,
            "byteLength" : 2208,
            "byteOffset" : 158464
        },
        {
            "buffer" : 0,
            "byteLength" : 2208,
            "byteOffset" : 160672
        },
        {
            "buffer" : 0,
            "byteLength" : 552,
            "byteOffset" : 162880
        }
    ],
    "buffers" : [
        {
            "byteLength" : 163432,
            "uri" : "data:application/octet-stream;base64,"
        }
    ]
}
